P3
4 10
255
0 0 0  0 0 0  42 42 42  50 50 50  
63 63 63  0 0 0  126 126 126  88 88 88  
0 0 0  63 63 63  0 0 0  126 126 126  
143 143 143  0 0 0  0 0 0  42 42 42  
0 0 0  33 33 33  0 0 0  170 170 170  
0 0 0  143 143 143  0 0 0  0 0 0  
0 0 0  0 0 0  63 63 63  0 0 0  
170 170 170  0 0 0  0 0 0  255 255 255  
255 255 255  0 0 0  33 33 33  0 0 0  
0 0 0  170 170 170  38 38 38  73 73 73  
