P3
10 4
255
0 0 0  0 0 0  0 0 0  0 0 255  0 0 255  0 0 0  0 0 0  0 255 255  0 0 0  0 0 0  
0 0 0  0 255 175  0 0 0  0 0 0  0 0 0  0 0 0  0 0 0  0 0 255  0 82 19  0 12 199  
0 0 0  0 0 0  0 15 175  0 0 0  0 0 0  0 255 175  0 0 0  0 0 0  0 23 100  0 50 50  
0 0 255  0 0 0  0 0 0  0 255 255  0 0 0  0 0 0  0 15 175  0 0 0  0 30 100  0 64 190  
