P3
4 4
255
0 0 0  0 0 0  3 23 100  50 50 50  
0 15 175  0 0 0  250 30 100  12 64 190  
0 0 0  0 15 175  0 0 0  250 30 100  
0 255 175  0 0 0  0 0 0  3 23 100  
